<svg height="512" viewBox="0 0 128 128" width="512" xmlns="http://www.w3.org/2000/svg"><path d="m109.877 68.308h-8.248a6.749 6.749 0 0 0 -5.936-9.962h-7.652c-5.369-18.546-14.815-22.326-16.691-22.901-.181-.056-.363-.1-.546-.139a8.159 8.159 0 1 0 -8.004 4.941l-2 5.6-8.528 2.8a6.751 6.751 0 0 0 -4.306 8.519 6.889 6.889 0 0 0 .521 1.187 6.752 6.752 0 0 0 -6.5 6.737v3.212h-1.587a8.157 8.157 0 1 0 -13.376 0h-8.9a1.75 1.75 0 0 0 -1.75 1.75v12.91a1.751 1.751 0 0 0 1.75 1.75h7.53l-5.4 17.046a1.749 1.749 0 0 0 1.668 2.278h4.625a1.749 1.749 0 0 0 1.613-1.071l7.467-17.765a6.746 6.746 0 0 0 12.138 3.843l3.218-4.327h27.217c.053 1.665.089 3.363.089 5.1a6.75 6.75 0 0 0 13.5 0c0-1.734-.034-3.433-.084-5.1h.463l7.675 18.253a1.749 1.749 0 0 0 1.613 1.071h4.625a1.749 1.749 0 0 0 1.668-2.278l-5.4-17.046h7.53a1.751 1.751 0 0 0 1.75-1.75v-12.908a1.75 1.75 0 0 0 -1.752-1.75zm-51.237-36.193a4.658 4.658 0 1 1 4.66 4.658 4.662 4.662 0 0 1 -4.66-4.658zm-7.168 21.485a3.231 3.231 0 0 1 1.887-1.622l9.341-3.069a1.752 1.752 0 0 0 1.1-1.074l2.511-7.03a3.243 3.243 0 0 1 4.012-2.013c.946.289 9.062 3.23 14.065 19.554h-6.806a34.53 34.53 0 0 0 -4.513-9.009 1.75 1.75 0 0 0 -3.06.445l-.909 2.544a3.23 3.23 0 0 1 -2.046 1.994l-11.667 3.833a3.25 3.25 0 0 1 -3.915-4.553zm22.381 4.746h-7.839l2.132-.7a6.7 6.7 0 0 0 3.9-3.337 35.229 35.229 0 0 1 1.807 4.037zm-44.8 5.3a4.658 4.658 0 1 1 4.657 4.658 4.663 4.663 0 0 1 -4.653-4.654zm-9.184 8.158h22.116v2.37l-5.009 6.751c-.071.094-.13.193-.2.289h-16.903zm5.507 28.734h-1.067l5.015-15.824h2.71zm19.587-13.59a3.251 3.251 0 1 1 -5.184-3.923l5.362-7.225a1.746 1.746 0 0 0 .344-1.043v-9.657a3.254 3.254 0 0 1 3.25-3.25h27.576.016.015 19.351a3.242 3.242 0 0 1 .377 6.462h-42.336a1.75 1.75 0 0 0 -1.75 1.75v.023.015 6.333a3.277 3.277 0 0 1 -.661 1.965zm43.327 2.873a3.25 3.25 0 0 1 -6.5 0c0-1.738-.036-3.436-.088-5.1h6.5c.053 1.665.088 3.364.088 5.1zm15.4 10.721h-1.07l-6.654-15.824h2.71zm4.436-19.324h-54.54l.54-.726a6.8 6.8 0 0 0 1.359-4.063v-4.621h52.642z"/></svg>