<svg height="512pt" viewBox="0 -94 512 512" width="512pt" xmlns="http://www.w3.org/2000/svg"><path d="m512 261.738281c0-5.242187-2.960938-9.71875-7.546875-11.398437-4.203125-1.542969-8.847656-.265625-11.832031 3.261718l-8.820313 10.414063-21.640625-87.027344c-1.480468-5.996093-6.140625-10.59375-12.167968-12.003906l-61.238282-14.257813 33.570313-51.015624 15.597656-20c2.28125-2.921876 2.082031-7.074219-.46875-9.769532l-2.210937-2.335937 5.453124-4.976563c3.320313-3.03125 5.242188-7.171875 5.410157-11.667968.167969-4.496094-1.441407-8.777344-4.53125-12.050782l-4.351563-4.609375c-5.230468-5.519531-13.527344-6.800781-20.171875-3.117187l-10.679687 5.929687-.28125-.296875c-2.890625-3.054687-7.300782-4.070312-11.238282-2.601562-3.9375 1.476562-6.59375 5.140625-6.769531 9.34375l-.15625 3.792968-22.941406 12.738282-23.738281-7.183594c-.003906 0-.003906 0-.003906-.003906l-40.507813-12.5c-.0625-.019532-.128906-.039063-.195313-.058594-10.03125-2.796875-20.890624-.96875-29.4375 4.875-.832031-5.128906-2.964843-9.988281-6.296874-14.15625l-15.636719-19.574219c-10.53125-13.183593-29.824219-15.339843-43.007813-4.8125l-4.179687 3.339844c-6.386719 5.101563-10.402344 12.382813-11.3125 20.507813-.90625 8.125 1.402343 16.113281 6.503906 22.5l15.636719 19.574218c3.179687 3.980469 7.164062 6.945313 11.53125 8.871094-7.898438 7.8125-11.886719 19.003906-10.523438 30.179688l15.691406 128.109374-3.230468 3.484376-18.957032-2.421876c-4.113281-.527343-7.867187 2.378907-8.390624 6.488282-.523438 4.109375 2.378906 7.867187 6.488281 8.390625l16.234375 2.074219v25.136718l-46.546875-4.765625c-.003907 0-.007813 0-.011719 0s-.007812-.003906-.015625-.003906l-38.617187-3.8125c-4.132813-.402344-7.796876 2.605469-8.203126 6.726563-.40625 4.121093 2.605469 7.792968 6.726563 8.203124l31.855469 3.144532v17.417968h-31.117188c-.027344 0-.050781.003907-.078125.003907h-26.742187v-2.789063c0-11.03125-6.207032-20.636718-15.3125-25.515625 3.757812-4.488281 6.320312-10.003906 7.195312-16.0625h3.640625c5.734375 0 11.328125-1.910156 16.179688-5.527343l13.125-9.832032c2.660156-1.984375 5.621093-2.835937 8.554687-2.464844l31.105469 3.976563c4.109375.527344 7.867187-2.382813 8.390625-6.488281.523438-4.109375-2.382812-7.867188-6.492188-8.390625l-31.109374-3.976563c-6.777344-.859375-13.671876 1.03125-19.433594 5.332032l-13.121094 9.828124c-2.230469 1.664063-4.722656 2.542969-7.203125 2.542969h-3.636719c-2.253906-15.613281-15.71875-27.648437-31.945312-27.648437h-26.882813c-17.800781 0-32.28125 14.480468-32.28125 32.28125v5.734375c0 7.558593 2.617188 14.515625 6.984375 20.019531-9.832031 4.625-16.660156 14.625-16.660156 26.191406v5.839844c0 6.585938 5.359375 11.945312 11.945312 11.945312l468.523438.003907h24.03125c4.070312 0 7.5-3.429688 7.5-7.5zm-15 9.898438v24.652343l-7.433594-9.101562-1.300781-5.238281zm-174.511719 38.1875-2.078125-5.457031c-2.765625-7.277344-8.785156-12.238282-15.707031-12.949219l-7.96875-.816407 14.84375-22.566406 123.847656 13.984375 3.664063 9.914063-.238282 17.890625zm-140.648437-15.910157 121.335937 12.425782c1.003907.101562 2.386719 1.179687 3.214844 3.355468l.046875.125h-124.597656zm138.984375-39.933593 24.023437-36.519531-5.222656 38.644531zm133.183593 44.152343h25.128907l9.546875 11.6875h-34.832032zm-7.421874-118.539062c.503906.117188.890624.496094 1.015624 1l25.039063 100.707031c.03125.121094.0625.238281.097656.351563l.363281 1.476562h-21.273437l-3.9375-10.648437c-.042969-.117188-.085937-.230469-.136719-.34375l-22.019531-59.511719c-2.101563-5.6875-7.140625-9.722656-13.140625-10.535156l-22.53125-3.050782c-4.109375-.554687-7.882812 2.320313-8.4375 6.425782-.554688 4.105468 2.320312 7.882812 6.425781 8.4375l22.527344 3.050781c.496094.066406.914063.402344 1.089844.878906l17.917969 48.429688-75.050782-8.472657 9.363282-69.296874 16.0625-24.410157zm-43.109376-123.71875 15.5 16.371094c.007813.011718.015626.019531.023438.03125.019531.019531.039062.035156.058594.058594l3.070312 3.238281-6.539062 8.382812-13.59375-13.882812.566406-13.691407zm20.847657-11.574219c.660156-.367187 1.484375-.234375 1.996093.304688l4.34375 4.601562c.394532.417969.464844.878907.449219 1.195313-.011719.3125-.113281.765625-.53125 1.148437l-5.652343 5.160157-7.914063-8.355469zm-54.835938 30.445313 17.707031-9.832032-.207031 5.023438-19.796875 21.347656-28.445312-8.617187 2.628906-7.136719 2.289062-6.21875 20.011719 6.054688c1.941407.585937 4.039063.363281 5.8125-.621094zm-26.988281 43.167968-18.394531-23.992187 2.707031.800781 29.035156 8.796875zm-46.082031-63.144531 32.882812 10.148438-4.109375 11.15625-.835937 2.273437-9.359375-2.773437c-.28125-.082031-.566406-.148438-.855469-.199219-4.328125-.746094-8.589844 1.199219-10.863281 4.960938-2.273438 3.761718-2.011719 8.449218.660156 11.933593l28.214844 36.800781-41.796875 45.070313-26.410157-41.074219c-2.496093-3.871094-7.285156-5.535156-11.640624-4.046875-4.355469 1.484375-7.128907 5.722657-6.742188 10.308594l1.292969 15.355469-12.25 3.34375-5.902344-48.195313c-.902344-7.417969 2.210937-14.855469 8.125-19.402343l10.957031-8.425782c2.824219-1.097656 5.539063-2.605468 8.03125-4.59375l4.175782-3.339844c2.09375-1.671874 3.929687-3.582031 5.484374-5.671874l13.171876-10.136719c5.019531-3.863281 11.65625-5.167969 17.769531-3.492188zm-30.640625 145.875-3.4375-40.832031c0-.011719-.003906-.023438-.003906-.035156l-.144532-1.707032 17.632813 27.429688zm-22.921875 24.71875-6.40625-52.292969 11.6875-3.1875 3.84375 45.644532zm-33.964844-181.699219c-2.601563-3.257812-3.78125-7.332031-3.316406-11.472656.464843-4.140625 2.511719-7.855468 5.769531-10.457031l4.179688-3.335937c6.71875-5.367188 16.554687-4.269532 21.921874 2.449218l15.640626 19.574219c2.601562 3.257813 3.777343 7.332031 3.3125 11.472656-.246094 2.199219-.949219 4.273438-2.035157 6.128907l-13.746093 10.566406c-5.769532 1.480468-12.136719-.40625-16.089844-5.351563zm27.761719 210.449219.085937-.09375 14.730469-15.882812 13.761719-14.835938c.011719-.015625.027343-.03125.039062-.050781l129.246094-139.375 12.121094 12.382812-56.214844 85.425782c-.027344.042968-.054687.085937-.082031.128906-.011719.019531-.023438.039062-.035156.058594-.027344.039062-.050782.078125-.074219.117187l-70.320313 106.890625-43.257812-4.433594zm-211.976563.976563c0-9.53125 7.75-17.28125 17.28125-17.28125h26.882813c9.527344 0 17.28125 7.75 17.28125 17.28125v5.734375c0 9.53125-7.753906 17.28125-17.28125 17.28125h-26.882813c-9.53125 0-17.28125-7.75-17.28125-17.28125zm-9.675781 51.945312c0-7.679687 6.246094-13.929687 13.929688-13.929687h51.042968c7.679688 0 13.929688 6.25 13.929688 13.929687v2.785156h-78.902344zm0 0"/></svg>