<?xml version="1.0" encoding="iso-8859-1"?>
<!-- Generator: Adobe Illustrator 16.0.0, SVG Export Plug-In . SVG Version: 6.00 Build 0)  -->
<!DOCTYPE svg PUBLIC "-//W3C//DTD SVG 1.1//EN" "http://www.w3.org/Graphics/SVG/1.1/DTD/svg11.dtd">
<svg version="1.1" id="Capa_1" xmlns="http://www.w3.org/2000/svg" xmlns:xlink="http://www.w3.org/1999/xlink" x="0px" y="0px"
	 width="560.382px" height="560.382px" viewBox="0 0 560.382 560.382" style="enable-background:new 0 0 560.382 560.382;"
	 xml:space="preserve">
<g>
	<g>
		<path d="M258.21,115.209c31.834,0,57.614-25.771,57.614-57.595C315.824,25.771,290.044,0,258.21,0
			c-31.824,0-57.614,25.771-57.614,57.614C200.596,89.438,226.386,115.209,258.21,115.209z"/>
		<path d="M448.131,83.624c-17.241,0-31.222,13.98-31.222,31.222v19.899l-67.684,25.111l-33.019-13.072
			c-1.377-0.545-2.773-0.851-4.179-1.186v-0.334h-1.177c-4.236-0.861-8.491-0.851-12.556,0H231.12
			c-14.784,0-26.756,11.972-26.756,26.756v181.391h1.473L88.648,502.662c-12.173,15.511-9.467,37.935,6.034,50.108
			c6.541,5.125,14.296,7.611,22.013,7.611c10.566,0,21.057-4.676,28.095-13.646l128.931-164.207l26.507,20.578l-10.882,110.074
			c-1.932,19.622,12.393,37.083,32.016,39.015c19.44,2.027,37.063-12.384,39.005-32.006l12.805-129.677
			c1.204-12.202-3.94-24.174-13.627-31.69l-47.507-36.892V212.288l25.322,10.031c3.7,1.463,7.592,2.189,11.494,2.189
			c3.681,0,7.354-0.65,10.872-1.951l99.269-36.825c12.24-4.542,20.358-16.208,20.358-29.28v-41.616
			C479.353,97.604,465.372,83.624,448.131,83.624z"/>
	</g>
</g>
<g>
</g>
<g>
</g>
<g>
</g>
<g>
</g>
<g>
</g>
<g>
</g>
<g>
</g>
<g>
</g>
<g>
</g>
<g>
</g>
<g>
</g>
<g>
</g>
<g>
</g>
<g>
</g>
<g>
</g>
</svg>
